<?xml version="1.0" encoding="UTF-8" standalone="yes"?>
<svg xmlns="http://www.w3.org/2000/svg" xmlns:xlink="http://www.w3.org/1999/xlink" width="50px" height="50px" viewBox="0 0 50 50" version="1.1" fill="#ffffff">
  <g id="surface563939">
    <path style=" stroke:none;fill-rule:nonzero;fill:rgba(255, 255, 255, 0.9);fill-opacity:1;" d="M 39 0 L 39 2 L 48 2 L 48 8 L 44 8 L 44 10 L 48 10 L 48 16 L 44 16 L 44 18 L 48 18 L 48 24 L 39 24 L 39 26 L 48 26 L 48 32 L 44 32 L 44 34 L 48 34 L 48 40 L 44 40 L 44 42 L 48 42 L 48 48 L 39 48 L 39 50 L 50 50 L 50 0 Z M 10 7 C 10 12.730469 9.632812 16.230469 9.09375 18.59375 C 8.554688 20.957031 7.875 22.195312 7.125 23.5625 C 6.375 24.929688 5.554688 26.429688 4.96875 29 C 4.46875 31.179688 4.125 34.210938 4.03125 38.59375 L 1.71875 36.28125 L 0.28125 37.71875 L 4.28125 41.71875 L 5 42.40625 L 5.71875 41.71875 L 9.71875 37.71875 L 8.28125 36.28125 L 6.03125 38.53125 C 6.125 34.308594 6.453125 31.445312 6.90625 29.46875 C 7.445312 27.117188 8.125 25.902344 8.875 24.53125 C 9.625 23.160156 10.445312 21.613281 11.03125 19.03125 C 11.617188 16.449219 12 12.816406 12 7 Z M 21 7 C 21 12.730469 20.632812 16.230469 20.09375 18.59375 C 19.554688 20.957031 18.875 22.195312 18.125 23.5625 C 17.375 24.929688 16.554688 26.429688 15.96875 29 C 15.46875 31.179688 15.125 34.210938 15.03125 38.59375 L 12.71875 36.28125 L 11.28125 37.71875 L 15.28125 41.71875 L 16 42.40625 L 16.71875 41.71875 L 20.71875 37.71875 L 19.28125 36.28125 L 17.03125 38.53125 C 17.125 34.308594 17.453125 31.445312 17.90625 29.46875 C 18.445312 27.117188 19.125 25.902344 19.875 24.53125 C 20.625 23.160156 21.445312 21.613281 22.03125 19.03125 C 22.617188 16.449219 23 12.816406 23 7 Z M 32 7 C 32 12.730469 31.632812 16.230469 31.09375 18.59375 C 30.554688 20.957031 29.875 22.195312 29.125 23.5625 C 28.375 24.929688 27.554688 26.429688 26.96875 29 C 26.46875 31.179688 26.125 34.210938 26.03125 38.59375 L 23.71875 36.28125 L 22.28125 37.71875 L 26.28125 41.71875 L 27 42.40625 L 27.71875 41.71875 L 31.71875 37.71875 L 30.28125 36.28125 L 28.03125 38.53125 C 28.125 34.308594 28.453125 31.445312 28.90625 29.46875 C 29.445312 27.117188 30.125 25.902344 30.875 24.53125 C 31.625 23.160156 32.445312 21.613281 33.03125 19.03125 C 33.617188 16.449219 34 12.816406 34 7 Z M 32 7 "/>
  </g>
</svg>
